<svg width="453" height="333" viewBox="0 0 453 333" fill="none" xmlns="http://www.w3.org/2000/svg">
    <mask id="mask0_0_1" style="mask-type:alpha" maskUnits="userSpaceOnUse" x="0" y="0" width="453" height="333">
        <rect width="453" height="333" rx="20" fill="#E6EDFF"/>
    </mask>
    <g mask="url(#mask0_0_1)">
    <path fill-rule="evenodd" clip-rule="evenodd" d="M368.046 -29.229C415.043 -33.5576 464.722 -19.7599 496.965 14.7074C528.457 48.3711 541.458 99.0463 529.756 143.635C519.674 182.053 470.231 189.706 443.363 218.957C413.88 251.053 411.349 314.767 368.046 319.683C325.067 324.563 300.565 271.942 273.438 238.249C250.467 209.719 228.579 180.194 226.302 143.635C223.876 104.685 236.126 66.6288 260.87 36.4521C288.49 2.76895 324.672 -25.2342 368.046 -29.229Z" fill="url(#paint0_linear_0_1)" fill-opacity="0.5"/>
    <path fill-rule="evenodd" clip-rule="evenodd" d="M-132.229 332.954C-136.558 285.957 -122.76 236.278 -88.2926 204.035C-54.6289 172.543 -3.95373 159.542 40.635 171.244C79.0529 181.326 86.7061 230.769 115.957 257.637C148.053 287.12 211.767 289.651 216.683 332.954C221.563 375.933 168.942 400.435 135.249 427.562C106.719 450.533 77.194 472.421 40.635 474.698C1.6851 477.124 -36.3712 464.874 -66.5479 440.13C-100.231 412.51 -128.234 376.328 -132.229 332.954Z" fill="url(#paint1_linear_0_1)" fill-opacity="0.5"/>
    <defs>
        <linearGradient id="paint0_linear_0_1" x1="470.45" y1="162.495" x2="275.928" y2="26.9995" gradientUnits="userSpaceOnUse">
            <stop offset="0.161636" stop-color="#B3C6FF" stop-opacity="0.4"/>
            <stop offset="1" stop-color="#C9F2FF"/>
        </linearGradient>
        <linearGradient id="paint1_linear_0_1" x1="-2.5" y1="419.5" x2="25.8084" y2="183.061" gradientUnits="userSpaceOnUse">
            <stop offset="0.161636" stop-color="#B3C6FF" stop-opacity="0.4"/>
            <stop offset="1" stop-color="#C9F2FF"/>
        </linearGradient>
    </defs>
</svg>
