<svg width="27" height="28" viewBox="0 0 27 28" fill="none" xmlns="http://www.w3.org/2000/svg">
    <path fill-rule="evenodd" clip-rule="evenodd" d="M2.07978 0.702127C1.18457 0.917034 0.411729 1.68185 0.205405 2.55696C0.0572322 3.18557 0.168362 3.91677 0.494206 4.45672C0.56481 4.57368 2.70155 6.72145 5.24255 9.22955L9.86257 13.7897L5.17643 18.4294C0.131108 23.4248 0.271524 23.2712 0.0768092 24.0096C-0.0800179 24.6044 0.00420019 25.2261 0.321284 25.8138C0.820524 26.739 1.98749 27.1879 3.22179 26.9294C3.95728 26.7754 3.76573 26.9454 8.78235 21.9957C11.3365 19.4756 13.4496 17.4137 13.478 17.4137C13.5064 17.4137 15.6196 19.4751 18.174 21.9946C22.4808 26.2426 22.8432 26.587 23.1613 26.7335C24.2522 27.2361 25.5734 27.0313 26.3285 26.2426C27.0384 25.5012 27.2026 24.3675 26.7388 23.4113C26.5853 23.0949 26.2173 22.7196 21.8461 18.4211L17.1193 13.7731L21.7171 9.22126C24.581 6.38593 26.3654 4.58093 26.4489 4.43483C26.6825 4.02597 26.764 3.64457 26.7373 3.08549C26.7086 2.48581 26.5817 2.12151 26.2494 1.68492C25.6008 0.832541 24.4234 0.47398 23.3987 0.816747C22.8148 1.01206 22.5479 1.25615 17.9664 5.78457L13.484 10.2152L8.86377 5.67006C3.90345 0.790373 4.02435 0.898061 3.29182 0.709581C2.92788 0.615966 2.45096 0.612995 2.07978 0.702127Z" fill="#E8E8E8"/>
</svg>
