<svg width="17" height="18" viewBox="0 0 17 18" fill="none" xmlns="http://www.w3.org/2000/svg">
    <path fill-rule="evenodd" clip-rule="evenodd" d="M6.17876 0.0330455C5.56897 0.154498 4.99979 0.582431 4.7232 1.12742C4.54632 1.47596 4.49657 1.7305 4.49596 2.29036L4.49543 2.77276L2.4843 2.78264C0.588653 2.792 0.465363 2.79639 0.337111 2.85958C-0.0149002 3.033 -0.112746 3.52525 0.146558 3.81826C0.359224 4.05864 -0.309005 4.04084 8.50771 4.04077C16.0722 4.04074 16.5337 4.03726 16.6483 3.97924C17.0971 3.75219 17.1215 3.13944 16.6917 2.88877L16.5268 2.79256L14.5198 2.78268L12.5128 2.77276L12.4964 2.20249C12.4821 1.70553 12.4687 1.60226 12.3921 1.39941C12.2604 1.05129 12.1286 0.848262 11.8696 0.594878C11.5946 0.325847 11.3023 0.162515 10.9241 0.0665557C10.6653 0.000871414 10.5326 -0.00268004 8.48546 0.000976903C7.29476 0.00308668 6.25673 0.0175035 6.17876 0.0330455ZM10.7503 1.32978C10.8283 1.36568 10.9431 1.44839 11.0055 1.51362C11.1931 1.70979 11.2288 1.84098 11.2288 2.33432V2.77498H8.49999H5.77122L5.772 2.32665C5.77264 1.9675 5.78571 1.85034 5.83781 1.73767C5.92059 1.55862 6.06919 1.41119 6.24964 1.32905C6.38211 1.26874 6.52975 1.26452 8.49999 1.26452C10.4795 1.26452 10.6173 1.26853 10.7503 1.32978ZM2.03253 4.90497C1.88946 4.97899 1.80632 5.05723 1.73647 5.18357C1.68292 5.28034 1.67807 5.75011 1.67807 10.8273C1.67807 16.1036 1.68115 16.3754 1.74324 16.5764C1.90431 17.098 2.25175 17.5245 2.70944 17.7625C3.19144 18.0132 2.85746 17.9994 8.46689 18C11.8995 18.0003 13.5867 17.9885 13.7295 17.9629C13.8452 17.9423 14.0674 17.8644 14.2233 17.7898C14.6996 17.5621 15.0564 17.1539 15.2164 16.6537L15.3042 16.3794V10.8373V5.29532L15.2191 5.15118C14.9926 4.76784 14.3956 4.75282 14.1626 5.1246L14.0816 5.25396L14.0638 10.7394L14.0461 16.2248L13.9701 16.3654C13.8769 16.5381 13.7987 16.6105 13.6296 16.6806C13.5143 16.7284 12.9167 16.7347 8.48163 16.7347C3.01304 16.7347 3.37767 16.7476 3.15426 16.5459C2.93918 16.3518 2.95556 16.7868 2.93614 10.7544L2.91842 5.2488L2.83042 5.1214C2.65812 4.87192 2.28963 4.77199 2.03253 4.90497ZM5.47548 6.06127C5.31045 6.11964 5.19141 6.22566 5.11759 6.37999C5.06865 6.48231 5.06245 6.95954 5.06245 10.6142C5.06245 14.6481 5.0639 14.736 5.13251 14.8695C5.35928 15.3105 6.01295 15.3012 6.26187 14.8534C6.31552 14.757 6.32052 14.3949 6.32052 10.6163C6.32052 6.78067 6.31616 6.47679 6.25977 6.37457C6.17734 6.2252 6.00901 6.09053 5.84986 6.04668C5.68276 6.00065 5.6424 6.0022 5.47548 6.06127ZM8.35267 6.04425C8.18944 6.09316 8.05888 6.18684 7.96788 6.32035L7.87981 6.4495L7.86925 10.5284C7.86188 13.3631 7.87028 14.647 7.89675 14.7376C7.94243 14.8937 8.08117 15.0653 8.21892 15.136C8.34647 15.2014 8.6518 15.2025 8.77641 15.1379C8.92004 15.0634 9.0641 14.8982 9.10315 14.7631C9.12494 14.6877 9.13788 13.1303 9.13788 10.5837C9.13788 6.59824 9.1366 6.5218 9.06711 6.37939C8.9844 6.2099 8.85054 6.10206 8.65648 6.04858C8.49949 6.00533 8.48319 6.00512 8.35267 6.04425ZM11.1102 6.05965C10.952 6.1175 10.8211 6.22988 10.7381 6.37918C10.6845 6.47563 10.6795 6.83528 10.6795 10.5811C10.6795 12.8342 10.6914 14.7199 10.706 14.7716C10.7412 14.8959 10.8928 15.0715 11.0225 15.138C11.3073 15.2841 11.7236 15.1466 11.8632 14.8604C11.9374 14.7085 11.9375 14.6996 11.9367 10.614C11.936 6.66797 11.9335 6.51452 11.8687 6.37271C11.7442 6.10079 11.3936 5.9561 11.1102 6.05965Z" fill="#004889"/>
</svg>
