<svg width="60" height="76" viewBox="0 0 60 76" fill="none" xmlns="http://www.w3.org/2000/svg">
    <path fill-rule="evenodd" clip-rule="evenodd" d="M28.7707 0.0926189C28.0165 0.282492 26.9877 0.815414 25.469 1.80296C23.0729 3.36087 23.0351 3.37068 19.5516 3.3371C16.6945 3.30947 16.4701 3.32759 15.6286 3.654C14.2457 4.19064 13.3078 5.23776 12.0532 7.64564C10.63 10.3773 10.3465 10.6655 7.77974 11.9916C6.13175 12.8429 5.45096 13.2889 4.74395 13.9805C3.37939 15.3153 3.26694 15.7438 3.26113 19.6262C3.25592 23.2247 3.31922 22.9857 1.70846 25.4845C0.118554 27.9511 0 28.2663 0 30.0262C0 31.7885 0.137469 32.154 1.69699 34.5399C3.30343 36.9974 3.25324 36.8063 3.25994 40.5004L3.26575 43.6946L3.70035 44.6336C4.30831 45.9471 5.28847 46.7663 7.82323 48.08C10.0519 49.2348 10.6529 49.7493 11.4244 51.1636L11.8282 51.9035L7.65866 59.5535C3.15792 67.8113 3.15732 67.8127 3.78107 68.8329C4.34331 69.7529 4.69033 69.8349 8.3679 69.9173L11.6828 69.9916L13.5214 72.6659C14.5786 74.2037 15.5686 75.4822 15.851 75.6744C16.8028 76.3226 18.0287 75.9762 18.7232 74.8626C18.9161 74.5533 20.8721 70.9907 23.0696 66.9459C25.2674 62.9011 27.1115 59.5392 27.1678 59.4751C27.224 59.4109 27.5994 59.5061 28.002 59.6868C29.0487 60.1562 30.972 60.16 31.9999 59.6945C32.4036 59.5117 32.779 59.4138 32.8341 59.477C32.8894 59.54 34.7291 62.9011 36.9225 66.9459C39.1157 70.9907 41.072 74.5535 41.2696 74.8631C41.9823 75.9793 43.1982 76.3219 44.149 75.6744C44.4314 75.4822 45.4214 74.2037 46.4786 72.6659L48.3172 69.9916L51.6321 69.9173C55.3097 69.8349 55.6567 69.7529 56.2189 68.8329C56.7815 67.9127 56.6502 67.4508 54.9263 64.2846C54.0549 62.684 53.2402 61.2575 53.116 61.1145C52.8102 60.7624 51.8682 60.7694 51.5445 61.1263C51.0822 61.6359 51.2538 62.2046 52.6367 64.7478C53.373 66.1017 54.0169 67.3173 54.0675 67.4491C54.1502 67.664 53.8775 67.6897 51.4257 67.6977C48.2244 67.7079 47.4053 67.8136 46.9074 68.2802C46.7075 68.4676 45.7972 69.7148 44.8843 71.0518C43.9715 72.3889 43.1798 73.483 43.1248 73.483C42.9447 73.483 34.7465 58.2967 34.8214 58.102C34.8616 57.9974 35.4487 57.635 36.1259 57.2969L37.3574 56.6821L40.2692 56.711C44.1024 56.7494 45.0284 56.486 46.3576 54.9796L46.9574 54.2999L47.8933 56.0544C48.9664 58.066 49.3139 58.4774 49.94 58.4774C50.4343 58.4774 51.0002 57.9012 51.0002 57.3979C51.0002 57.2349 50.3642 55.9312 49.5869 54.5009L48.1735 51.9005L48.5764 51.1621C49.3462 49.7511 49.9493 49.2342 52.1655 48.0858C54.6959 46.7745 55.5807 46.0385 56.2438 44.6936L56.7342 43.6988L56.7374 40.5025C56.7408 36.8078 56.6873 37.0116 58.303 34.5399C59.8625 32.154 60 31.7885 60 30.0262C60 28.2638 59.8625 27.8983 58.303 25.5124C56.696 23.0539 56.7441 23.2351 56.7389 19.6262C56.7332 15.786 56.6167 15.3456 55.2462 13.9804C54.5428 13.2796 53.893 12.8505 52.2097 11.9756C49.6283 10.634 49.3638 10.3652 47.9468 7.64564C46.6922 5.23776 45.7543 4.19064 44.3714 3.654C43.5299 3.32759 43.3055 3.30947 40.4484 3.3371C36.9487 3.37083 36.9591 3.37365 34.434 1.7419C32.4747 0.475931 31.5491 0.0847446 30.3411 0.0123908C29.7849 -0.020889 29.0782 0.0152136 28.7707 0.0926189ZM31.1526 2.44033C31.5427 2.58949 32.6634 3.22627 33.6432 3.85546C36.1942 5.4936 36.6498 5.61067 40.2767 5.55986C44.3025 5.50341 44.3744 5.5462 46.1928 9.07772C47.5734 11.7593 48.3805 12.5489 51.2644 14.0392C54.5069 15.7151 54.6701 15.9996 54.5134 19.7005C54.4531 21.1234 54.4758 22.3153 54.5727 22.8199C54.7745 23.8695 55.3879 25.1691 56.3586 26.6041C58.3318 29.521 58.3371 30.523 56.3947 33.3953C54.6278 36.0076 54.3712 36.957 54.514 40.3518C54.6694 44.0453 54.4776 44.37 51.1224 46.0929C48.43 47.4755 47.5377 48.3464 46.2736 50.826C44.4024 54.4969 44.3996 54.4985 39.909 54.5236C36.093 54.545 36.2208 54.5089 33.2863 56.3912C30.2246 58.355 29.7196 58.3529 26.6601 56.3628C25.7593 55.777 24.6176 55.1271 24.1228 54.919C23.2578 54.5547 23.1009 54.5397 20.0208 54.5248C17.0438 54.5106 16.7735 54.4866 16.1837 54.1865C15.3888 53.7821 14.8753 53.0798 13.7264 50.826C12.4555 48.3329 11.5608 47.4587 8.88218 46.0924C7.79344 45.5371 6.64424 44.8373 6.3285 44.5373C5.49355 43.7443 5.36919 43.1265 5.48596 40.3518C5.62879 36.957 5.37217 36.0076 3.60533 33.3953C1.66288 30.523 1.66825 29.521 3.64137 26.6041C4.61214 25.1691 5.22547 23.8695 5.42728 22.8199C5.52423 22.3153 5.54687 21.1234 5.48655 19.7005C5.32987 15.9996 5.49311 15.7151 8.73562 14.0392C11.5867 12.5657 12.4468 11.7362 13.7264 9.22629C14.8712 6.98035 15.3858 6.27449 16.1841 5.85492C16.7882 5.53743 16.9601 5.52317 19.7233 5.5609C23.3522 5.61038 23.8249 5.48914 26.3685 3.85576C29.0562 2.12967 29.7802 1.91558 31.1526 2.44033ZM27.6915 7.08702C22.6823 7.60821 17.9243 9.74658 14.428 13.048C13.2517 14.1587 13.1583 14.2896 13.1997 14.7692C13.2568 15.4291 13.854 15.9224 14.4234 15.7799C14.6355 15.7267 15.3282 15.2103 15.963 14.6322C18.7993 12.0487 22.0579 10.4073 25.9787 9.58687C28.001 9.16374 31.4862 9.1211 33.5334 9.49446C36.4442 10.0253 39.4894 11.266 41.8891 12.8991C44.3729 14.5892 47.2745 17.9325 48.6869 20.7314C50.9702 25.2569 51.4687 30.8577 50.0295 35.8204C48.431 41.3324 44.4517 46.0768 39.2566 48.6646C37.64 49.47 35.3483 50.2291 33.5745 50.5467C31.6885 50.8844 28.3176 50.8826 26.4255 50.5427C19.04 49.2161 12.8226 43.9827 10.3465 37.009C9.23501 33.878 8.86862 30.1119 9.36399 26.9062C9.67095 24.9193 10.55 22.2113 11.4557 20.4621C12.1785 19.0661 12.2864 18.4044 11.8551 18.015C11.4939 17.6889 10.6006 17.6969 10.3002 18.0291C9.88929 18.4836 8.58326 21.2277 8.12215 22.6057C7.22138 25.297 7.00169 26.7521 7.00169 30.0262C7.00169 32.5599 7.05159 33.2274 7.34023 34.5576C8.28717 38.9215 10.316 42.7826 13.2819 45.865C16.943 49.6698 21.3298 51.9602 26.6489 52.8438C27.9879 53.0662 32.0014 53.0674 33.3511 52.8457C38.6756 51.9713 43.1022 49.6511 46.7531 45.8208C49.7419 42.6852 51.7051 38.9282 52.6723 34.4929C52.9469 33.2335 52.9983 32.5288 52.9983 30.0262C52.9983 27.4976 52.9481 26.8222 52.6611 25.4948C51.4336 19.8155 48.3457 14.9855 43.7344 11.5317C39.1672 8.11082 33.3471 6.49838 27.6915 7.08702ZM28.5851 15.0014C28.0401 15.3223 27.8181 15.686 25.9787 19.272L23.968 23.1919L19.8723 23.7917C17.3251 24.1648 15.5964 24.4877 15.3002 24.6458C14.1114 25.2805 13.5429 27.0207 14.145 28.1824C14.2895 28.461 15.7457 29.9927 17.3808 31.5861L20.3539 34.4833L19.6311 38.7365L18.9085 42.9898L19.2041 43.6982C19.6387 44.7389 20.3994 45.2943 21.4987 45.3736C22.4723 45.4438 22.5832 45.3958 27.6182 42.7283C28.8514 42.0749 29.9202 41.5404 29.9933 41.5404C30.0663 41.5404 31.7901 42.4129 33.8237 43.4795L37.5213 45.4187L38.4467 45.3671C39.213 45.3245 39.4688 45.2374 39.9361 44.8609C40.2612 44.599 40.6253 44.1065 40.7959 43.6982L41.0915 42.9898L40.3686 38.7365L39.6456 34.4833L42.6207 31.5861C44.2569 29.9927 45.713 28.461 45.8566 28.1824C46.4562 27.0182 45.8868 25.2778 44.6998 24.647C44.4061 24.4909 42.6539 24.1633 40.1277 23.7923L36.032 23.1907L34.0213 19.2714C32.1821 15.6861 31.9599 15.3221 31.4149 15.0014C30.9834 14.7473 30.5934 14.6506 30 14.6506C29.4066 14.6506 29.0166 14.7473 28.5851 15.0014ZM32.1596 20.5511C33.9395 24.1358 34.3259 24.739 35.0975 25.1394C35.3208 25.2553 37.3232 25.6181 39.5475 25.9455C41.7717 26.273 43.65 26.5768 43.7214 26.6208C44.1014 26.8551 43.6002 27.4816 40.8741 30.1805C38.5372 32.4939 37.8417 33.272 37.6403 33.7981C37.3854 34.464 37.3883 34.4952 38.0988 38.6657C38.4921 40.9742 38.7705 42.9331 38.7173 43.0188C38.5115 43.351 37.923 43.1122 34.4306 41.2804C31.0744 39.52 30.7612 39.3861 30 39.3861C29.2383 39.3861 28.9282 39.5189 25.5783 41.2804C22.1051 43.1066 21.4911 43.3552 21.2827 43.0188C21.2295 42.9331 21.5079 40.9742 21.9012 38.6657C22.6117 34.4952 22.6146 34.464 22.3597 33.7981C22.1583 33.272 21.4628 32.4939 19.1259 30.1805C16.394 27.4759 15.8983 26.8554 16.2815 26.619C16.3547 26.574 18.2246 26.2743 20.4372 25.9531C22.6498 25.6317 24.6509 25.2695 24.8843 25.148C25.6959 24.7253 26.1235 24.0613 27.7723 20.6653C28.6846 18.7864 29.5028 17.1623 29.5907 17.0562C29.6786 16.9502 29.8904 16.8833 30.0614 16.9077C30.3056 16.9424 30.7556 17.7238 32.1596 20.5511ZM14.8604 56.0162C15.9531 56.647 16.6195 56.7421 19.7308 56.711L22.6426 56.6821L23.8741 57.2969C24.5513 57.635 25.1384 57.9974 25.1786 58.102C25.2535 58.2967 17.0553 73.483 16.8752 73.483C16.8202 73.483 16.0285 72.3889 15.1157 71.0518C14.2028 69.7148 13.2907 68.4659 13.0888 68.2765C12.6007 67.8194 11.7544 67.7128 8.49985 67.6996C6.09109 67.6898 5.84922 67.6656 5.93471 67.4433C6.00217 67.268 12.3213 55.5893 12.9802 54.4225C13.0168 54.3575 13.3156 54.6094 13.6444 54.9818C13.9732 55.3544 14.5203 55.8199 14.8604 56.0162Z" fill="#004889"/>
</svg>
