<svg width="67" height="76" viewBox="0 0 67 76" fill="none" xmlns="http://www.w3.org/2000/svg">
    <path fill-rule="evenodd" clip-rule="evenodd" d="M29.2041 0.136447C25.3816 0.631467 21.5554 2.27109 18.6492 4.65963L17.8682 5.30149L17.0242 4.90254C16.2762 4.54887 16.0045 4.50343 14.635 4.50343C13.2286 4.50343 13.0171 4.54115 12.2804 4.92288C11.8353 5.15346 11.3365 5.46883 11.1722 5.62339C10.8906 5.88827 10.8313 5.89139 10.142 5.67565C7.81361 4.94678 5.39676 6.40542 4.7697 8.91793C4.60532 9.57687 4.58693 9.59305 3.90453 9.68437C2.40082 9.8857 0.96746 10.98 0.309937 12.4288C0.0802163 12.935 -0.00116473 13.4073 1.25677e-05 14.2286C0.00192568 15.6928 0.416042 16.6515 1.46384 17.6176C2.67396 18.7334 3.14164 18.8314 7.25704 18.8314H10.7352L10.7477 21.3926C10.7619 24.2561 11.0301 25.924 11.8571 28.2876C12.3602 29.7262 13.4838 32.0425 14.1838 33.0851L14.6325 33.7533L10.035 33.8343C5.98835 33.9056 5.35806 33.9487 4.77515 34.1938C3.33119 34.8011 2.43526 35.6233 1.71343 37.0039L1.31682 37.7621V54.9112V72.0602L1.6397 72.7656C2.12136 73.8178 3.29896 74.9926 4.37457 75.4938L5.29022 75.9206L21.3719 75.9602L37.4535 76L37.8173 75.633C38.2801 75.166 38.281 74.5973 37.8198 74.1322L37.4586 73.7677L21.6687 73.7644C6.71137 73.7613 5.84781 73.7469 5.29022 73.4906C4.39164 73.0777 3.65524 72.1632 3.46084 71.2189C3.34502 70.6556 3.30882 65.7553 3.33707 54.4637L3.3771 38.5045L3.70395 37.8879C4.15765 37.0318 4.97838 36.3921 5.87048 36.199C6.39394 36.0858 14.2819 36.0515 32.4534 36.0835L58.2919 36.1289L59.0096 36.5766C59.5322 36.9026 59.8393 37.2404 60.1386 37.8186L60.5498 38.6126V43.3469V48.0812H58.7905H57.0313L56.9339 47.558C56.6903 46.2477 54.8104 46.3073 54.8104 47.6251V48.06L50.8003 48.1077C46.4348 48.1596 46.3789 48.1699 45.4787 49.0697C44.6879 49.8603 44.6562 50.079 44.6562 54.7627C44.6562 58.3218 44.6961 59.1744 44.884 59.628C45.1878 60.3617 45.6362 60.8318 46.3486 61.1635C46.8738 61.408 47.3615 61.4379 50.8738 61.4409L54.8104 61.4441V62.0215C54.8104 63.7013 56.7502 63.7491 56.9729 62.0748L57.0566 61.4441H58.8087H60.5608L60.5184 66.5406L60.4762 71.637L60.0702 72.2556C59.8469 72.5959 59.3884 73.0585 59.0511 73.2838L58.4379 73.6934L50.1857 73.7677C45.6471 73.8085 41.8239 73.8968 41.6897 73.9639C41.0418 74.2879 41.0528 75.4898 41.7069 75.8431C41.9194 75.9578 44.4935 75.9936 50.3598 75.9635L58.7103 75.9206L59.5544 75.5215C60.6328 75.0114 61.7823 73.8517 62.2879 72.7635L62.6835 71.9117L62.729 66.6779L62.7744 61.4441L63.0969 61.4409C63.6281 61.4355 64.5826 60.924 65.0037 60.4192C65.6724 59.6174 65.7224 59.1715 65.673 54.4527L65.6269 50.0597L65.2129 49.4573C64.8051 48.8639 63.9479 48.32 63.1691 48.1605L62.7718 48.0793L62.7276 43.0691L62.6836 38.0591L62.2282 37.094C61.4095 35.359 59.9859 34.2832 58.0953 33.9708C57.6241 33.893 55.4009 33.8288 53.1549 33.8284C49.4133 33.8275 48.7254 33.7637 49.21 33.4614C49.2865 33.4137 49.6921 32.7751 50.1114 32.0421L50.8737 30.7095H53.2969H55.7202L56.3162 31.2241C57.8255 32.5278 60.3585 32.511 61.7601 31.1882C62.0476 30.9168 62.412 30.7753 63.0502 30.6872C64.6185 30.4708 65.7869 29.625 66.5121 28.181C67.9678 25.2826 66.0129 21.9058 62.6792 21.5604L61.792 21.4685L61.542 20.6128C60.9168 18.4725 58.535 16.7477 56.2144 16.7545C55.3885 16.7569 54.1921 17.1005 53.4203 17.5567C52.6798 17.9946 52.7506 18.0694 52.4483 16.53C51.8191 13.3246 49.6883 9.32936 47.1943 6.67861C46.222 5.64507 45.9839 5.4669 45.576 5.46764C44.9639 5.46883 44.5091 5.91901 44.5091 6.5236C44.5091 6.89049 44.7239 7.21654 45.5605 8.11972C46.9256 9.59335 47.9 10.9959 48.7725 12.7439C49.5101 14.2214 50.2993 16.5048 50.4674 17.6475L50.5663 18.3193L49.5404 18.8504L48.5145 19.3814L48.4186 18.6238C48.134 16.3795 46.7908 13.2044 45.2574 11.1513C42.6346 7.63955 38.5833 5.19014 34.3729 4.57084C32.6379 4.31561 29.3175 4.46171 27.8291 4.85859C24.7572 5.67803 22.4008 7.02575 20.143 9.25468C17.7937 11.574 16.387 14.0061 15.5629 17.1729C14.8833 19.7846 14.9707 24.5739 15.719 25.7262C16.024 26.1955 16.6323 26.3311 17.0868 26.0306C17.6126 25.683 17.6954 25.2962 17.48 24.1947C17.2191 22.8609 17.222 19.8997 17.4856 18.5344C18.0218 15.7571 19.3344 13.2236 21.3156 11.1415C25.5217 6.72122 31.6938 5.38969 37.3567 7.68083C42.4837 9.75504 46.0762 14.7643 46.3796 20.2624L46.4628 21.7675L45.9429 22.0165C43.9523 22.9694 42.8797 25.4105 43.5469 27.4687C43.6869 27.9003 43.9272 28.4319 44.0808 28.6497L44.3604 29.0457L43.6751 29.989C42.8157 31.1722 41.3788 32.6073 40.3625 33.2979L39.5831 33.8275H31.7776H23.9721L22.7876 32.8826C21.549 31.8945 20.6234 30.8948 19.6777 29.5242C18.9992 28.5407 18.5984 28.3011 17.9899 28.5152C17.4837 28.6932 17.2085 29.1982 17.3368 29.7137C17.4648 30.2284 18.3483 31.4963 19.453 32.7511L20.4009 33.8275H18.9154H17.43L16.5749 32.6642C15.0047 30.5273 13.8142 27.824 13.2143 25.033C12.8423 23.3019 12.8404 19.3876 13.2107 17.6436C14.4801 11.6634 18.1497 6.82397 23.3912 4.21762C26.4818 2.68074 29.1245 2.10925 32.4987 2.24778C35.4575 2.36938 37.563 2.88578 40.2249 4.14308C40.9039 4.46379 41.5526 4.72615 41.6665 4.72615C41.7804 4.72615 42.036 4.56208 42.2347 4.36164C42.7412 3.85073 42.7137 3.21926 42.1648 2.75319C41.6069 2.27955 38.8807 1.12307 37.3717 0.719959C34.8986 0.0592389 31.6128 -0.175502 29.2041 0.136447ZM15.4528 6.67401C15.8125 6.76532 16.1067 6.8896 16.1067 6.95018C16.1067 7.01075 15.7238 7.53443 15.2556 8.11378C13.6389 10.1151 12.1529 13.0233 11.5115 15.4409L11.2029 16.6043H7.49574C3.88349 16.6043 3.77576 16.5956 3.29204 16.2666C2.43968 15.6871 2.09016 15.0202 2.16257 14.1112C2.2285 13.2817 2.52164 12.7541 3.20139 12.2422C3.49527 12.0208 3.91925 11.9232 4.86212 11.86C6.01484 11.7828 6.1598 11.7381 6.48179 11.3604C6.75699 11.0376 6.83542 10.7745 6.83572 10.1743C6.83616 8.22544 8.43361 7.14884 10.073 7.99263C10.3903 8.15595 10.7884 8.28958 10.9574 8.28958C11.3212 8.28958 12.1333 7.89048 12.1333 7.71156C12.1333 7.49939 13.2814 6.80719 13.8629 6.66881C14.6303 6.48634 14.7152 6.48663 15.4528 6.67401ZM31.2675 10.0829C30.599 10.3623 30.3566 10.7218 29.0223 13.412C28.2932 14.8819 27.6342 16.1247 27.5577 16.1737C27.481 16.2228 26.3468 16.4127 25.0369 16.5958C21.1835 17.1345 20.9906 17.2044 20.5664 18.2158C20.1791 19.1396 20.3753 19.4654 22.8183 21.9546L25.0823 24.261L24.5632 27.2834C23.9844 30.6538 24.0031 30.9845 24.8103 31.6697C25.6103 32.3488 26.1167 32.2263 29.0873 30.6353C30.5357 29.8595 31.7748 29.2247 31.841 29.2247C31.9072 29.2247 33.1687 29.8674 34.6443 30.6529C37.1296 31.9759 37.3756 32.0756 37.984 32.0065C38.3881 31.9604 38.779 31.8008 38.9999 31.5915C39.6531 30.9722 39.6643 30.5518 39.1139 27.2818L38.6071 24.2699L40.8225 22.0312C42.3102 20.528 43.0826 19.6354 43.1739 19.3147C43.4392 18.3812 42.8532 17.3435 41.9284 17.1094C41.7496 17.0641 40.353 16.8481 38.8252 16.6295L36.0472 16.2319L34.6492 13.4157C33.7812 11.6674 33.1116 10.5001 32.8832 10.3371C32.407 9.9975 31.7277 9.8906 31.2675 10.0829ZM33.1285 15.2635C33.9426 16.9606 34.4533 17.8503 34.711 18.0207C34.9464 18.1763 36.0035 18.4071 37.4825 18.6259C38.7975 18.8204 40.0324 19.0168 40.2265 19.0623C40.5488 19.1379 40.3979 19.33 38.4973 21.264C36.6334 23.1608 36.4151 23.4362 36.4153 23.891C36.4154 24.1706 36.6098 25.5339 36.8473 26.9207C37.0847 28.3073 37.2581 29.4631 37.2326 29.4887C37.2071 29.5146 36.1203 28.9646 34.8178 28.2666C32.9578 27.2701 32.3202 26.9976 31.8476 26.9976C31.3755 26.9976 30.7352 27.2705 28.8789 28.2626C27.5771 28.9584 26.4911 29.5064 26.4654 29.4806C26.4398 29.4547 26.6216 28.2148 26.8694 26.725C27.1317 25.1494 27.2782 23.8481 27.2201 23.614C27.1611 23.3766 26.2996 22.376 25.1202 21.175C23.8412 19.8725 23.1956 19.1156 23.3294 19.0751C23.4443 19.0402 24.6689 18.8468 26.0506 18.6454C27.5817 18.4222 28.7066 18.184 28.9309 18.0359C29.1699 17.8779 29.7316 16.9074 30.5327 15.2683C31.2114 13.8799 31.8027 12.747 31.8466 12.751C31.8906 12.7549 32.4675 13.8855 33.1285 15.2635ZM57.3271 19.1488C58.6037 19.5802 59.4681 20.6764 59.6689 22.1188C59.8561 23.4637 60.1906 23.7301 61.6985 23.7344C63.617 23.7399 64.6433 24.4772 64.7835 25.951C64.9142 27.322 63.9843 28.3958 62.5188 28.5664C61.3111 28.707 61.1502 28.7686 60.583 29.3089C59.9426 29.9189 59.5981 30.0314 58.6879 29.9279C58.1677 29.8687 57.8926 29.7257 57.4389 29.2785L56.8572 28.7051L52.0332 28.6308L47.2092 28.5566L46.6179 28.1615C45.8384 27.6407 45.4845 26.8818 45.5756 25.9263C45.6138 25.5234 45.7742 25.015 45.932 24.7966C46.2956 24.2927 47.3745 23.7311 47.9787 23.7311C48.6251 23.7311 49.1862 23.2419 49.306 22.574C49.5747 21.0759 50.6351 20.3171 52.0208 20.6311C52.8065 20.8093 53.0925 20.7116 53.8521 20.005C54.1918 19.6892 54.6954 19.3319 54.9711 19.2111C55.5761 18.9462 56.6437 18.918 57.3271 19.1488ZM47.495 30.6964L48.3471 30.7837L47.8841 31.5261C47.6295 31.9344 47.1552 32.6194 46.8301 33.048L46.2393 33.8275H44.7793H43.3193L44.491 32.4295C45.1354 31.6607 45.7383 30.889 45.8307 30.7149C45.9574 30.476 46.0775 30.4241 46.3208 30.5036C46.498 30.5616 47.0264 30.6483 47.495 30.6964ZM9.07156 40.1511C8.1724 40.6032 7.52047 41.3449 7.20745 42.2717C6.73064 43.6834 7.07147 44.5772 8.08631 44.5772C8.76311 44.5772 9.19003 44.1203 9.19003 43.3961C9.19003 42.6632 9.70303 42.1453 10.5915 41.9812C11.4167 41.8289 11.839 41.4344 11.839 40.8154C11.839 39.7735 10.474 39.446 9.07156 40.1511ZM14.2192 40.1101C13.8243 40.5342 13.8092 41.106 14.1803 41.5689C14.4555 41.9122 14.5204 41.9205 17.2977 41.9658C20.3809 42.0163 20.679 41.9833 21.1139 41.5446C21.4887 41.1664 21.4834 40.6502 21.0995 40.1578L20.7945 39.7666H17.6669C14.5878 39.7666 14.5342 39.7719 14.2192 40.1101ZM23.7591 40.0635C23.3874 40.4386 23.3814 41.1144 23.7459 41.5689C24.0211 41.9122 24.086 41.9205 26.8632 41.9658C29.9464 42.0163 30.2446 41.9833 30.6795 41.5446C31.0543 41.1664 31.049 40.6502 30.665 40.1578L30.3601 39.7666H27.2067C24.2496 39.7666 24.0352 39.785 23.7591 40.0635ZM33.3247 40.0635C32.9282 40.4635 32.9359 41.2675 33.3397 41.6366C33.6177 41.8907 33.9413 41.9242 36.5252 41.9657C39.6268 42.0154 40.0856 41.937 40.3694 41.3085C40.6143 40.7664 40.5761 40.5363 40.1744 40.1311C39.8138 39.7672 39.8082 39.7666 36.7161 39.7666C33.8152 39.7666 33.6003 39.7854 33.3247 40.0635ZM42.8903 40.0635C42.4938 40.4635 42.5015 41.2675 42.9053 41.6366C43.1818 41.8893 43.5064 41.9245 45.9589 41.9676C49.0061 42.0209 49.6615 41.914 49.9298 41.3199C50.1801 40.766 50.1438 40.5383 49.74 40.1311C49.3794 39.7672 49.3738 39.7666 46.2816 39.7666C43.3808 39.7666 43.1659 39.7854 42.8903 40.0635ZM52.4558 40.0635C52.0728 40.45 52.0667 41.2672 52.4444 41.6121C52.6001 41.7542 52.997 41.9069 53.3266 41.9515C54.0729 42.0525 54.6271 42.5845 54.7413 43.3095C54.8534 44.0224 54.9859 44.2525 55.4303 44.5071C55.9326 44.795 56.6482 44.504 56.8461 43.9313C57.0096 43.458 56.845 42.3643 56.5125 41.7158C55.7552 40.2383 53.2814 39.2306 52.4558 40.0635ZM7.28765 46.9877C7.00245 47.3536 6.98259 47.5694 6.98259 50.312C6.98259 52.9565 7.00966 53.2788 7.25793 53.5881C7.59802 54.0118 8.47879 54.0589 8.86097 53.6739C9.08348 53.4497 9.12218 53.0276 9.16133 50.4082C9.20445 47.5285 9.19297 47.3827 8.8932 46.9981C8.46319 46.4467 7.71325 46.4418 7.28765 46.9877ZM63.2618 50.5417C63.4607 50.7424 63.493 51.3406 63.493 54.8178C63.493 57.7643 63.4452 58.9089 63.3164 59.0388C63.0617 59.2958 47.295 59.2958 47.0403 59.0388C46.9115 58.9089 46.8637 57.7643 46.8637 54.8178C46.8637 51.3406 46.896 50.7424 47.0949 50.5417C47.2994 50.3354 48.2362 50.3084 55.1784 50.3084C62.1205 50.3084 63.0573 50.3354 63.2618 50.5417ZM50.2965 53.3922C49.7251 53.4849 49.2183 54.144 49.2183 54.7943C49.2183 56.0592 50.5923 56.6859 51.5615 55.863C52.3833 55.1655 52.0825 53.7306 51.0572 53.4577C50.8147 53.3931 50.4724 53.3637 50.2965 53.3922ZM7.28765 56.3417C7.00275 56.707 6.98259 56.9241 6.98259 59.618C6.98259 61.3677 7.04395 62.6189 7.13872 62.7973C7.51649 63.5094 8.68364 63.4425 9.02373 62.6891C9.12851 62.4572 9.19003 61.2873 9.19003 59.527C9.19003 56.9251 9.16898 56.7059 8.88496 56.3417C8.66377 56.058 8.44435 55.9505 8.08631 55.9505C7.72826 55.9505 7.50884 56.058 7.28765 56.3417ZM7.25822 65.6203C6.99274 65.8882 6.95742 66.0543 7.02497 66.7149C7.19818 68.4091 8.38343 69.7365 9.99397 70.04C10.8065 70.1932 11.4731 70.0225 11.6949 69.6045C12.1037 68.8338 11.6069 68.0812 10.5881 67.9276C9.8658 67.8188 9.19003 67.1336 9.19003 66.51C9.19003 66.2773 9.05272 65.9109 8.88496 65.6957C8.49512 65.1955 7.71516 65.1593 7.25822 65.6203ZM55.1048 65.6015C54.9429 65.7648 54.8104 66.0687 54.8104 66.277C54.8104 66.4852 54.7099 66.8515 54.5872 67.0911C54.3351 67.5829 53.6848 67.9771 53.1254 67.9771C52.2607 67.9771 51.816 69.2488 52.4713 69.8471C53.159 70.4749 55.2602 69.877 56.0348 68.833C56.9146 67.6473 57.188 66.2012 56.6465 65.5976C56.298 65.209 55.4918 65.211 55.1048 65.6015ZM14.1993 68.3021C13.8227 68.7098 13.8148 69.3236 14.1803 69.7794C14.4542 70.1209 14.5303 70.1313 17.1456 70.1794C18.622 70.2066 20.0555 70.1863 20.3311 70.134C21.3337 69.9442 21.69 69.1257 21.0995 68.3683L20.7945 67.9771H17.6469C14.5984 67.9771 14.4899 67.9873 14.1993 68.3021ZM23.7591 68.274C23.3874 68.6491 23.3814 69.325 23.7459 69.7794C24.0199 70.1214 24.0935 70.1312 26.7247 70.1769C29.7725 70.2299 30.2609 70.1739 30.6764 69.7239C31.0531 69.316 31.0493 68.861 30.665 68.3683L30.3601 67.9771H27.2067C24.2496 67.9771 24.0352 67.9955 23.7591 68.274ZM33.3247 68.274C32.9282 68.674 32.9359 69.478 33.3397 69.8471C33.6162 70.0998 33.9409 70.135 36.3933 70.1781C39.4405 70.2314 40.0959 70.1245 40.3642 69.5304C40.6025 69.0031 40.5811 68.8178 40.2306 68.3683L39.9257 67.9771H36.7723C33.8152 67.9771 33.6008 67.9955 33.3247 68.274ZM42.8903 68.274C42.4937 68.6742 42.5015 69.478 42.9057 69.8471C43.1896 70.1064 43.4733 70.13 46.3033 70.13H49.3909L49.7461 69.7134C50.1812 69.203 50.1934 68.8776 49.7962 68.3683L49.4913 67.9771H46.3379C43.3808 67.9771 43.1663 67.9955 42.8903 68.274Z" fill="#004889"/>
</svg>
