<svg width="76" height="76" viewBox="0 0 76 76" fill="none" xmlns="http://www.w3.org/2000/svg">
    <path fill-rule="evenodd" clip-rule="evenodd" d="M35.1396 0.0441934C34.8535 0.0774619 33.984 0.177119 33.2075 0.265785C21.4472 1.60781 10.5815 8.97412 4.61876 19.6475C2.44113 23.5453 0.862311 28.3884 0.19217 33.226C-0.0640566 35.0756 -0.0640566 40.8816 0.19217 42.7313C1.7591 54.0418 7.79944 63.6555 17.2305 69.8485C24.2107 74.4322 32.9841 76.6184 41.3074 75.8483C44.3701 75.5649 48.322 74.7357 48.839 74.2682C49.2012 73.9406 49.2009 73.0089 48.8383 72.6811C48.4746 72.3521 48.0759 72.3701 46.2624 72.7971C43.2309 73.5107 41.5394 73.6925 37.9634 73.6888C34.197 73.685 32.364 73.4705 29.113 72.653C19.0764 70.1297 10.4473 63.1308 5.86348 53.796C4.60301 51.229 3.89794 49.337 3.26495 46.8229C2.44292 43.5582 2.23054 41.7421 2.23054 37.9786C2.23054 34.2151 2.44292 32.399 3.26495 29.1344C5.79273 19.094 12.7837 10.4865 22.135 5.90094C24.7038 4.64134 26.5971 3.93676 29.113 3.30421C32.3784 2.48319 34.1974 2.27066 37.9634 2.26992C41.6644 2.26932 43.3642 2.46151 46.5697 3.24332C56.728 5.72093 65.4319 12.7296 70.0633 22.1612C72.3922 26.9041 73.5137 31.3335 73.7297 36.6419C74.1246 46.3503 70.4924 55.8157 63.6776 62.837C60.7702 65.8325 57.9082 67.9501 54.0862 69.9335C52.7233 70.6406 52.0087 71.0982 51.9022 71.3319C51.6771 71.8255 51.9927 72.5106 52.5516 72.742C52.9465 72.9054 53.0955 72.8783 53.9111 72.4947C61.9116 68.7321 68.14 62.6517 71.9997 54.8357C73.3775 52.0457 74.0214 50.3471 74.7481 47.5868C78.1866 34.5255 74.4313 20.6961 64.8446 11.1161C58.9264 5.20185 51.7798 1.62148 43.3138 0.329352C41.8322 0.103156 36.2957 -0.0899203 35.1396 0.0441934ZM35.1396 6.1408C34.9352 6.17035 34.1661 6.26942 33.4304 6.36105C29.4599 6.85563 24.7624 8.56064 21.0755 10.8455C18.7629 12.2785 18.3484 12.8955 19.1559 13.7023C19.6729 14.2191 20.1084 14.1587 21.1889 13.4202C24.9772 10.8312 29.5099 9.11135 34.1459 8.50405C41.09 7.59436 48.3037 9.25705 54.2376 13.1349C56.1459 14.382 57.601 15.5998 59.3691 17.4289C63.8859 22.1021 66.6078 27.7817 67.4594 34.3103C68.4545 41.9397 66.2791 49.8763 61.4671 56.1723C60.5039 57.4327 58.0055 59.9786 56.6899 61.0407C45.9265 69.73 30.805 69.9039 19.7571 61.4655C18.5413 60.5369 16.1329 58.1934 15.0039 56.8407C11.3917 52.5121 8.96747 46.7049 8.37268 40.9562C8.15867 38.8873 8.27325 35.0214 8.60409 33.1517C9.56895 27.697 11.8845 22.6788 15.1722 18.9172C17.0157 16.8081 17.182 16.5668 17.0786 16.1522C16.9288 15.5521 16.5681 15.255 15.9889 15.255C15.4078 15.255 14.8622 15.7551 13.116 17.8886C4.39687 28.5415 3.63933 44.1441 11.2864 55.574C17.5894 64.9947 27.8854 70.2743 39.1524 69.8631C43.9597 69.6877 47.6775 68.7575 52.0083 66.6466C61.7716 61.8878 68.4351 52.5127 69.6917 41.7668C70.8379 31.9642 67.5046 22.3412 60.5581 15.3995C54.4493 9.29492 46.3339 5.98663 37.6661 6.06713C36.4809 6.07827 35.3439 6.11139 35.1396 6.1408ZM46.212 24.7725C42.9967 25.1741 40.4063 27.4698 39.596 30.6353C39.3249 31.6949 39.301 32.2897 39.301 37.9786C39.301 43.6675 39.3249 44.2624 39.596 45.3219C40.3061 48.0961 42.3396 50.1653 45.1539 50.9771C46.3734 51.3289 48.32 51.3 49.5667 50.9116C52.0943 50.124 54.1462 47.9379 54.8337 45.3002C55.1585 44.054 55.1585 31.9033 54.8337 30.657C53.82 26.7676 50.1722 24.2778 46.212 24.7725ZM26.3868 25.0695C24.4301 25.4535 22.4347 27.0074 21.5178 28.8614C20.8518 30.2079 20.7271 31.0839 21.1305 31.5816C21.4842 32.0181 22.2205 32.0596 22.6539 31.6677C22.8188 31.5186 23.0257 31.1231 23.1139 30.7889C23.4726 29.4274 24.5842 28.1328 25.9068 27.5356C26.9593 27.0605 28.7112 27.0888 29.7991 27.5987C30.8338 28.0836 31.6491 28.9018 32.1509 29.9585C32.4743 30.6399 32.5387 30.9848 32.5387 32.0378C32.5387 33.2147 32.4966 33.3879 31.917 34.5933C31.5751 35.3044 31.012 36.3069 30.6657 36.8211C29.3758 38.7359 26.3735 42.9022 24.1147 45.912C22.8324 47.6205 21.7415 49.1848 21.6905 49.3879C21.6395 49.5911 21.6728 49.9387 21.7647 50.1602C22.0991 50.9669 22.1639 50.9741 29.0072 50.9741H35.3143L35.5985 50.6235C35.9345 50.209 35.9662 49.5858 35.6718 49.1831C35.4717 48.9096 35.1892 48.8911 30.1182 48.8206L24.7753 48.7463L26.173 46.8898C28.3439 44.006 32.057 38.7849 32.9542 37.3542C33.9638 35.7444 34.5023 34.4174 34.7239 32.9934C35.4754 28.1625 31.2226 24.1205 26.3868 25.0695ZM48.0647 26.9976C49.9399 27.3017 51.5522 28.516 52.3561 30.2296L52.7514 31.0724V37.9786V44.8848L52.3561 45.7277C50.2966 50.1176 44.1495 50.1023 42.0627 45.7021L41.6047 44.7363V37.9786V31.221L42.0627 30.2551C42.8657 28.562 44.4978 27.2865 46.2343 26.9954C46.6308 26.9289 46.9885 26.8672 47.0294 26.8582C47.0703 26.8493 47.5362 26.9119 48.0647 26.9976Z" fill="#004889"/>
</svg>
