<svg width="98" height="58" viewBox="0 0 98 58" fill="none" xmlns="http://www.w3.org/2000/svg">
    <path fill-rule="evenodd" clip-rule="evenodd" d="M13.2944 0.312058C13.149 0.487983 13.0371 2.02341 13.0007 4.33964L12.9421 8.08304L6.75699 8.14018C2.48946 8.17949 0.479869 8.27378 0.275594 8.44391C-0.201832 8.84173 0.0229772 9.96344 0.642861 10.2766C1.31579 10.6169 22.9632 10.6774 23.8427 10.3417C24.5251 10.0811 24.7261 9.60493 24.4669 8.86342L24.269 8.29784L19.782 8.19044L15.295 8.08304V5.18318V2.28332L40.2679 2.22876L65.2408 2.1742V23.6555V45.1368H52.5668H39.8929L39.3866 44.1788C38.699 42.8771 36.6231 40.9352 35.2479 40.3074C33.5688 39.5409 31.5153 39.2413 29.8912 39.5259C27.0555 40.023 24.2665 41.986 23.0808 44.3201L22.6658 45.1368H18.9232H15.1804L15.2377 40.0352L15.295 34.9336L19.2364 34.875C21.7011 34.8382 23.2836 34.7278 23.4609 34.58C23.8703 34.2389 23.8087 33.233 23.3529 32.8188C23.0019 32.4996 22.034 32.4638 13.8878 32.4666C8.89728 32.4685 4.70804 32.5409 4.57863 32.6277C4.06227 32.9739 3.87105 33.6557 4.13864 34.1953L4.39831 34.7188L8.7238 34.777L13.0491 34.835V39.9688V45.1026L12.3539 45.2502C10.4904 45.6461 9.29043 47.22 9.46454 49.04C9.57834 50.2287 10.0624 51.0179 11.1218 51.742C11.8087 52.2116 11.9821 52.2253 17.1988 52.2253H22.5683L23.1028 53.2397C23.8898 54.7336 25.6401 56.3805 27.315 57.2028C28.7075 57.8865 28.8779 57.9177 31.2306 57.9177C33.5487 57.9177 33.7728 57.8784 35.1193 57.2378C36.8635 56.408 38.2688 55.1417 39.2908 53.4789L40.0613 52.2253H55.6253H71.1891L71.8238 53.3531C72.6869 54.8863 74.372 56.4121 76.0982 57.2234C77.271 57.7746 77.872 57.9138 79.3929 57.9868C83.2071 58.1701 86.3707 56.4338 88.0317 53.2457L88.5632 52.2253H92.0032C95.9344 52.2253 96.5864 52.0447 97.464 50.7129C97.8426 50.1381 97.9941 49.6101 97.9999 48.8422C98.0138 47.0599 97.0762 45.8046 95.3911 45.349L94.5817 45.1301L94.4833 37.3467C94.3807 29.2323 94.3062 28.4912 93.3009 25.5849C91.3223 19.8655 86.3416 14.8638 80.6463 12.8768C78.1657 12.0114 76.7311 11.8118 72.1391 11.6926L67.5937 11.5747V6.05894C67.5937 2.05541 67.5233 0.472732 67.337 0.285637C66.9409 -0.112181 13.6236 -0.0861891 13.2944 0.312058ZM27.8189 8.49976C27.6784 8.66967 27.5945 9.07823 27.6324 9.40752C27.744 10.3782 28.3881 10.5471 31.9793 10.5471C35.5704 10.5471 36.2145 10.3782 36.3262 9.40752C36.4594 8.25059 36.2442 8.19044 31.9793 8.19044C28.8422 8.19044 28.0243 8.25123 27.8189 8.49976ZM76.8947 14.3177C84.4987 15.6493 90.5401 21.7162 91.866 29.3523C92.1131 30.7752 92.1922 32.9172 92.1922 38.1838V45.1368H90.4194H88.6466L87.7376 43.7483C86.6751 42.1255 85.4681 41.0691 83.7994 40.302C81.1389 39.0787 78.4068 39.1206 75.7685 40.4249C74.1962 41.2022 72.35 42.9742 71.7727 44.26L71.3789 45.1368H69.4863H67.5937V29.5635V13.9902H71.3089C73.6781 13.9902 75.7018 14.1089 76.8947 14.3177ZM4.74975 16.6108C4.43446 16.9274 4.41991 17.5329 4.71446 18.0856C4.92279 18.4764 5.20643 18.5011 9.48443 18.5011C12.737 18.5011 14.1062 18.4276 14.2897 18.2433C14.6206 17.911 14.6206 16.9431 14.2897 16.6108C13.9263 16.2458 5.11317 16.2458 4.74975 16.6108ZM17.7977 16.6108C17.4668 16.9431 17.4668 17.911 17.7977 18.2433C17.9908 18.4373 20.8182 18.5011 29.2082 18.5011C39.7421 18.5011 40.3817 18.4791 40.716 18.1082C41.1605 17.615 41.1667 17.1252 40.734 16.6905C40.4369 16.3923 39.097 16.353 29.2262 16.353C20.8222 16.353 17.9908 16.4168 17.7977 16.6108ZM70.845 17.2552C70.4769 17.6249 70.4769 33.1247 70.845 33.4944C71.0362 33.6864 73.3228 33.7522 79.8136 33.7522C87.4481 33.7522 88.5668 33.7105 88.8616 33.4147C89.3365 32.9376 89.2973 30.7754 88.7767 28.7307C87.3436 23.1043 82.827 18.6607 77.1833 17.3244C75.5136 16.9291 71.2165 16.8821 70.845 17.2552ZM76.6845 19.6114C80.2237 20.3475 83.8651 23.2566 85.5213 26.6709C86.3061 28.2886 87.0871 31.0156 86.8328 31.2503C86.7806 31.2987 83.6337 31.3812 79.8395 31.4338L72.9412 31.5294V25.3406V19.1521L74.2781 19.2705C75.0135 19.3356 76.0962 19.4892 76.6845 19.6114ZM0.47666 24.6352C-0.0471822 25.0036 -0.167608 25.9786 0.25784 26.4059C0.436233 26.585 1.56712 26.6636 3.96794 26.6636C7.12597 26.6636 7.45388 26.6275 7.80082 26.2426C8.3082 25.6796 8.08082 24.7828 7.36083 24.5081C7.06244 24.394 5.49819 24.3008 3.88495 24.3008C1.57654 24.3008 0.850772 24.3721 0.47666 24.6352ZM11.6241 24.5154C10.9802 24.7759 10.7999 25.4964 11.2181 26.1371L11.5616 26.6636H23.7062C32.867 26.6636 35.914 26.6003 36.1076 26.4059C36.533 25.9786 36.4126 25.0036 35.8887 24.6352C35.472 24.342 33.9747 24.3025 23.7499 24.3143C17.335 24.3218 11.8784 24.4123 11.6241 24.5154ZM27.2142 32.7978C26.6596 33.1877 26.5924 34.0041 27.0747 34.4887C27.3648 34.78 28.2574 34.8262 33.5835 34.8262C40.2775 34.8262 40.4283 34.8002 40.4283 33.6415C40.4283 32.54 39.9828 32.4633 33.5835 32.4633C28.5952 32.4633 27.6166 32.5147 27.2142 32.7978ZM34.0956 42.3121C35.4513 42.9144 36.8998 44.3399 37.5899 45.7507C38.1002 46.7947 38.1809 47.2159 38.1721 48.7885C38.1633 50.3402 38.0752 50.7823 37.5843 51.7341C36.4258 53.9801 34.8197 55.2025 32.4558 55.6371C30.0723 56.0753 27.8448 55.2863 26.1222 53.3937C24.8694 52.017 24.3591 50.6674 24.3591 48.7303C24.3591 45.5443 26.2288 43.0306 29.3667 41.9979C30.5474 41.6091 32.859 41.7629 34.0956 42.3121ZM82.8007 42.3912C84.1922 43.0392 85.4037 44.2198 86.1699 45.6738C86.6668 46.617 86.7359 46.9962 86.7361 48.7885C86.7365 50.5112 86.6593 50.9748 86.2407 51.7633C84.8929 54.3025 82.6159 55.7099 79.8553 55.7099C78.505 55.7099 78.0603 55.6083 76.8981 55.0337C75.2351 54.2114 73.9812 52.8487 73.3551 51.1829C72.7318 49.5242 72.8494 47.2112 73.6357 45.6652C74.1835 44.588 75.6231 43.0732 76.6002 42.5458C78.4305 41.5577 80.8803 41.4967 82.8007 42.3912ZM29.587 45.3273C27.257 46.4211 26.7779 49.4378 28.6251 51.3855C30.4524 53.3123 33.4528 52.8695 34.659 50.4951C36.305 47.255 32.8909 43.7767 29.587 45.3273ZM78.5026 45.1628C77.8194 45.4356 76.8395 46.3672 76.4515 47.113C76.0682 47.8498 76.0633 49.4539 76.4415 50.3628C77.0363 51.7923 78.9835 52.8539 80.4902 52.5701C81.4634 52.3867 82.5423 51.6437 83.1498 50.7385C83.8424 49.7066 83.8225 47.9641 83.1045 46.7337C82.235 45.2436 80.1137 44.5195 78.5026 45.1628ZM32.3001 47.7145C33.1833 48.6014 32.5194 50.2921 31.2875 50.2921C30.6811 50.2921 29.7333 49.3989 29.7333 48.8271C29.7333 47.5617 31.4199 46.8305 32.3001 47.7145ZM81.127 47.9606C81.9278 49.0426 80.8324 50.5486 79.4904 50.2103C78.8573 50.0507 78.2436 48.9642 78.4511 48.37C78.8791 47.1457 80.3563 46.9197 81.127 47.9606ZM22.0329 48.7885V50.0773L17.4875 50.0741C14.2664 50.0719 12.7864 49.9922 12.4074 49.8006C11.7385 49.4625 11.5822 48.489 12.1036 47.9104C12.447 47.5293 12.8191 47.4997 17.2533 47.4997H22.0329V48.7885ZM70.5883 48.7885V50.0773H55.6153H40.6422V48.7885V47.4997H55.6153H70.5883V48.7885ZM95.2313 47.7682C95.8679 48.2706 95.9006 48.9504 95.3169 49.5366C94.7967 50.059 94.6842 50.0773 91.988 50.0773H89.1976V48.7885V47.4997H92.0444C93.9978 47.4997 94.998 47.5839 95.2313 47.7682Z" fill="#004889"/>
</svg>
