<svg width="108" height="65" viewBox="0 0 108 65" fill="none" xmlns="http://www.w3.org/2000/svg">
    <path fill-rule="evenodd" clip-rule="evenodd" d="M14.6408 0.349721C14.4806 0.546878 14.3574 2.26761 14.3173 4.86339L14.2528 9.05858L7.44127 9.12261C2.74157 9.16667 0.528465 9.27234 0.303503 9.463C-0.222272 9.90883 0.0253041 11.1659 0.707964 11.5169C1.44904 11.8982 25.2886 11.9661 26.2573 11.5898C27.0087 11.2978 27.2302 10.7641 26.9446 9.93315L26.7268 9.29931L21.7854 9.17894L16.844 9.05858V5.80873V2.55889L44.3459 2.49775L71.8478 2.4366V26.5105V50.5844H57.8902H43.9329L43.3754 49.5107C42.618 48.0519 40.3319 45.8757 38.8175 45.172C36.9683 44.3131 34.7069 43.9773 32.9183 44.2963C29.7954 44.8533 26.7239 47.0533 25.4182 49.6691L24.9612 50.5844H20.8396H16.7177L16.7808 44.867L16.844 39.1497L21.1844 39.084C23.8988 39.0428 25.6415 38.9191 25.8368 38.7535C26.2877 38.3712 26.2198 37.2439 25.7178 36.7797C25.3313 36.422 24.2654 36.3818 15.2942 36.3849C9.79831 36.3871 5.18482 36.4682 5.04231 36.5655C4.47366 36.9535 4.26307 37.7176 4.55776 38.3223L4.84373 38.909L9.60727 38.9742L14.3706 39.0392V44.7927V50.5461L13.605 50.7115C11.5528 51.1551 10.2313 52.9189 10.423 54.9586C10.5483 56.2908 11.0814 57.1753 12.2482 57.9868C13.0045 58.513 13.1956 58.5284 18.9405 58.5284H24.8538L25.4425 59.6651C26.3091 61.3394 28.2367 63.1851 30.0812 64.1066C31.6147 64.8728 31.8024 64.9077 34.3934 64.9077C36.9462 64.9077 37.193 64.8637 38.6759 64.1458C40.5967 63.2159 42.1443 61.7968 43.2698 59.9333L44.1183 58.5284H61.2585H78.3985L79.0974 59.7922C80.0479 61.5106 81.9037 63.2205 83.8047 64.1297C85.0963 64.7474 85.7582 64.9034 87.433 64.9852C91.6336 65.1906 95.1176 63.2448 96.9467 59.6719L97.5321 58.5284H101.32C105.65 58.5284 106.368 58.326 107.334 56.8334C107.751 56.1893 107.918 55.5975 107.924 54.7369C107.94 52.7396 106.907 51.3328 105.051 50.8222L104.16 50.5769L104.052 41.8541C103.939 32.7603 103.857 31.9298 102.75 28.6727C100.571 22.2631 95.0855 16.6577 88.8134 14.4309C86.0816 13.461 84.5017 13.2374 79.4446 13.1038L74.4389 12.9716V6.79019C74.4389 2.30348 74.3614 0.529786 74.1563 0.320111C73.72 -0.12572 15.0033 -0.0965912 14.6408 0.349721ZM30.6361 9.52559C30.4814 9.71601 30.389 10.1739 30.4307 10.5429C30.5537 11.6308 31.263 11.82 35.2178 11.82C39.1727 11.82 39.882 11.6308 40.0049 10.5429C40.1517 9.24635 39.9147 9.17894 35.2178 9.17894C31.7631 9.17894 30.8623 9.24707 30.6361 9.52559ZM84.6819 16.0457C93.0559 17.538 99.7091 24.3372 101.169 32.8949C101.441 34.4894 101.529 36.89 101.529 42.7922V50.5844H99.5763H97.6239L96.6228 49.0283C95.4528 47.2096 94.1235 46.0257 92.2859 45.166C89.3559 43.7951 86.3471 43.842 83.4417 45.3037C81.71 46.1749 79.6769 48.1607 79.0411 49.6017L78.6075 50.5844H76.5232H74.4389V33.1315V15.6786H78.5304C81.1395 15.6786 83.3682 15.8118 84.6819 16.0457ZM5.23076 18.6155C4.88354 18.9704 4.86752 19.649 5.19189 20.2684C5.42133 20.7063 5.73368 20.7339 10.4449 20.7339C14.0269 20.7339 15.5347 20.6516 15.7368 20.4451C16.1012 20.0727 16.1012 18.9879 15.7368 18.6155C15.3366 18.2065 5.63098 18.2065 5.23076 18.6155ZM19.6001 18.6155C19.2356 18.9879 19.2356 20.0727 19.6001 20.4451C19.8128 20.6624 22.9264 20.7339 32.1661 20.7339C43.7669 20.7339 44.4712 20.7094 44.8394 20.2936C45.3289 19.7409 45.3357 19.1921 44.8592 18.7048C44.532 18.3707 43.0564 18.3266 32.1859 18.3266C22.9309 18.3266 19.8128 18.3981 19.6001 18.6155ZM78.0195 19.3377C77.6141 19.752 77.6141 37.1225 78.0195 37.5368C78.2301 37.752 80.7483 37.8257 87.8964 37.8257C96.3041 37.8257 97.5361 37.779 97.8607 37.4475C98.3836 36.9129 98.3405 34.4897 97.7672 32.1982C96.1889 25.8928 91.215 20.9128 84.9997 19.4152C83.1609 18.9723 78.4287 18.9196 78.0195 19.3377ZM84.4503 21.9783C88.348 22.8032 92.3582 26.0634 94.1821 29.8898C95.0464 31.7028 95.9064 34.7588 95.6264 35.0219C95.5689 35.0761 92.1033 35.1685 87.9249 35.2275L80.328 35.3346V28.399V21.4636L81.8003 21.5962C82.6101 21.6692 83.8026 21.8413 84.4503 21.9783ZM0.524932 27.6084C-0.0519603 28.0213 -0.184582 29.114 0.283952 29.5928C0.480411 29.7935 1.72583 29.8816 4.36978 29.8816C7.84762 29.8816 8.20874 29.8412 8.59082 29.4098C9.14957 28.7789 8.89917 27.7738 8.10627 27.4659C7.77766 27.3381 6.05499 27.2336 4.27838 27.2336C1.73619 27.2336 0.93693 27.3135 0.524932 27.6084ZM12.8013 27.4741C12.0922 27.7661 11.8936 28.5735 12.3542 29.2916L12.7325 29.8816H26.107C36.1954 29.8816 39.551 29.8106 39.7642 29.5928C40.2327 29.114 40.1001 28.0213 39.5232 27.6084C39.0643 27.2798 37.4154 27.2356 26.155 27.2488C19.0905 27.2572 13.0813 27.3586 12.8013 27.4741ZM29.9702 36.7561C29.3594 37.1931 29.2854 38.1081 29.8166 38.6512C30.136 38.9776 31.119 39.0294 36.9845 39.0294C44.3565 39.0294 44.5225 39.0002 44.5225 37.7017C44.5225 36.4673 44.0319 36.3813 36.9845 36.3813C31.491 36.3813 30.4133 36.4389 29.9702 36.7561ZM37.5485 47.4188C39.0415 48.0938 40.6367 49.6912 41.3966 51.2724C41.9587 52.4423 42.0475 52.9144 42.0378 54.6767C42.0282 56.4158 41.9311 56.9112 41.3905 57.9779C40.1147 60.4949 38.3459 61.8649 35.7427 62.3519C33.1178 62.843 30.6646 61.9588 28.7677 59.8377C27.388 58.2949 26.8259 56.7824 26.8259 54.6115C26.8259 51.041 28.885 48.224 32.3407 47.0666C33.641 46.6309 36.1867 46.8032 37.5485 47.4188ZM91.186 47.5073C92.7183 48.2336 94.0526 49.5567 94.8964 51.1862C95.4436 52.2432 95.5197 52.6681 95.5199 54.6767C95.5204 56.6074 95.4353 57.1269 94.9743 58.0106C93.49 60.8563 90.9825 62.4335 87.9423 62.4335C86.4552 62.4335 85.9655 62.3197 84.6857 61.6757C82.8542 60.7542 81.4733 59.227 80.7838 57.3602C80.0974 55.5012 80.227 52.9091 81.0929 51.1765C81.6962 49.9693 83.2815 48.2717 84.3575 47.6807C86.3732 46.5733 89.0711 46.505 91.186 47.5073ZM32.5833 50.7979C30.0173 52.0237 29.4897 55.4045 31.524 57.5872C33.5364 59.7465 36.8406 59.2504 38.169 56.5893C39.9816 52.9582 36.2218 49.0601 32.5833 50.7979ZM86.4526 50.6135C85.7002 50.9192 84.6211 51.9632 84.1938 52.7991C83.7717 53.6248 83.7663 55.4225 84.1827 56.4411C84.8378 58.0431 86.9822 59.2328 88.6415 58.9148C89.7133 58.7092 90.9015 57.8765 91.5704 56.8621C92.3332 55.7056 92.3113 53.7528 91.5205 52.3739C90.563 50.704 88.2269 49.8925 86.4526 50.6135ZM35.5712 53.4731C36.5438 54.4671 35.8126 56.3618 34.456 56.3618C33.7882 56.3618 32.7444 55.3609 32.7444 54.7201C32.7444 53.3019 34.6018 52.4825 35.5712 53.4731ZM89.3427 53.749C90.2247 54.9615 89.0184 56.6493 87.5405 56.2701C86.8432 56.0913 86.1674 54.8737 86.3959 54.2078C86.8672 52.8356 88.494 52.5824 89.3427 53.749ZM24.2642 54.6767V56.1211L19.2585 56.1175C15.7112 56.1151 14.0813 56.0258 13.6639 55.8111C12.9273 55.4322 12.7551 54.3412 13.3294 53.6926C13.7075 53.2656 14.1173 53.2324 19.0005 53.2324H24.2642V54.6767ZM77.7368 54.6767V56.1211H61.2475H44.7581V54.6767V53.2324H61.2475H77.7368V54.6767ZM104.875 53.5333C105.577 54.0963 105.613 54.8583 104.97 55.5152C104.397 56.1007 104.273 56.1211 101.304 56.1211H98.2307V54.6767V53.2324H101.366C103.517 53.2324 104.618 53.3267 104.875 53.5333Z" fill="#004889"/>
</svg>
