<svg width="97" height="97" viewBox="0 0 97 97" fill="none" xmlns="http://www.w3.org/2000/svg">
    <path fill-rule="evenodd" clip-rule="evenodd" d="M22.5315 0.187537C19.4085 0.799748 16.7401 3.71036 16.2603 7.02816C16.1653 7.68528 16.0857 13.9997 16.0837 21.0603L16.0799 33.8976L12.0529 33.8991C9.83821 33.8999 7.4717 33.9882 6.79423 34.0954C3.49195 34.6178 0.761028 37.2815 0.154808 40.5709C0.027273 41.2633 -0.0246508 44.958 0.0109757 50.8029C0.0665 59.885 0.0701006 59.9591 0.509179 61.0468C1.36213 63.1597 3.22437 64.9967 5.26854 65.7421L6.41522 66.1601V71.1436C6.41522 73.9818 6.49614 76.3399 6.60321 76.6217C6.83099 77.2208 7.79897 77.6689 8.48099 77.4912C8.80959 77.4055 10.1556 75.9918 12.5267 73.2425L16.0799 69.122L16.0837 78.9371C16.0857 84.3354 16.1653 89.2899 16.2603 89.9471C16.7524 93.3494 19.4126 96.1853 22.6909 96.8025C24.09 97.0658 72.8797 97.0658 74.2788 96.8025C77.0429 96.2822 79.1936 94.4154 80.3653 91.5196L80.7951 90.4575L80.8898 72.563L80.9846 54.6685L84.3513 58.5865C86.2031 60.7413 87.9264 62.641 88.1811 62.8078C88.7879 63.2053 89.6704 63.0134 90.1732 62.3743C90.5342 61.9155 90.5544 61.6131 90.5544 56.708V51.5265L91.0756 51.4011C93.6485 50.7817 96.2145 48.0429 96.7874 45.3045C97.0601 44.0019 97.0752 27.3507 96.8052 25.9178C96.1825 22.6141 93.2746 19.9272 89.8423 19.4848C89.1396 19.3942 86.8377 19.3173 84.7272 19.3139L80.8898 19.3076L80.886 13.7653C80.8839 10.7172 80.8043 7.68528 80.7094 7.02816C80.2173 3.62585 77.557 0.789895 74.2788 0.172757C73.0052 -0.0669357 23.7581 -0.0527247 22.5315 0.187537ZM74.1837 3.48165C75.4524 3.85834 76.5661 4.8497 77.1064 6.08303C77.4854 6.9482 77.5574 7.48329 77.63 9.97572L77.7143 12.8653H48.4848H19.2554L19.3397 9.97572C19.4384 6.58932 19.7664 5.53903 21.0753 4.41882C22.5415 3.16408 21.0539 3.22946 48.403 3.21505C69.788 3.20369 73.372 3.24063 74.1837 3.48165ZM46.2785 6.60259C45.228 7.04768 44.9646 8.34637 45.7628 9.14465C46.2459 9.62745 46.3363 9.64412 48.4848 9.64412C50.6334 9.64412 50.7238 9.62745 51.2069 9.14465C51.8368 8.51482 51.8523 7.75065 51.2495 7.04938C50.8062 6.5338 50.7302 6.51637 48.7386 6.47412C47.6088 6.45005 46.5019 6.50804 46.2785 6.60259ZM77.6285 17.7355L77.6832 19.2898L61.5207 19.3461L45.358 19.4024L44.2707 19.8414C41.9297 20.7867 40.2075 22.4395 39.3665 24.5479C38.961 25.565 38.9197 25.9906 38.8594 29.7764L38.7937 33.8976H29.0475H19.3014V25.1184C19.3014 20.2897 19.3584 16.282 19.4284 16.2121C19.4981 16.1424 32.6094 16.1069 48.5644 16.1333L77.5735 16.1812L77.6285 17.7355ZM90.977 23.1567C91.5742 23.4499 92.3227 24.0041 92.6405 24.3884C93.7385 25.7155 93.776 26.0876 93.776 35.6302C93.776 43.8315 93.7553 44.36 93.3981 45.3144C92.787 46.9479 91.2827 48.1644 89.5795 48.4029C88.3882 48.5697 87.7924 48.8342 87.5472 49.3054C87.4138 49.5618 87.3139 51.0994 87.285 53.3489L87.2381 56.9784L83.8271 53.0024C81.951 50.8154 80.2455 48.9263 80.037 48.8042C79.7585 48.6411 75.1418 48.5573 62.6028 48.4876C45.6034 48.3932 45.5451 48.3915 44.7871 47.9857C43.713 47.4104 43.0042 46.6523 42.4804 45.5186L42.0279 44.5392L42.0823 35.2867C42.1354 26.2204 42.1446 26.0188 42.5454 25.2763C43.2712 23.9315 44.506 23.0408 46.0831 22.7243C46.5182 22.637 56.5529 22.5786 68.3826 22.5945L89.8912 22.6235L90.977 23.1567ZM49.7166 29.3874C44.2311 31.4598 43.7503 38.8095 48.9374 41.2995C51.5887 42.5722 54.3765 42.0324 56.482 39.839C57.6134 38.6602 58.0468 37.4898 58.0511 35.6001C58.0543 34.1547 57.9897 33.8546 57.4309 32.7185C56.7521 31.3385 55.7828 30.3761 54.3738 29.6836C53.3734 29.1919 50.6865 29.021 49.7166 29.3874ZM65.4703 29.6267C63.3225 30.5097 61.935 32.2609 61.5605 34.5608C60.9365 38.3947 63.8577 41.8952 67.704 41.9225C69.3305 41.9341 70.3006 41.6697 71.4674 40.8968C74.8234 38.6742 75.2654 33.9158 72.3834 31.0342C70.516 29.1671 67.8895 28.6323 65.4703 29.6267ZM81.6499 29.5795C80.1921 30.1391 78.6262 31.7338 78.0598 33.2358C77.7079 34.1688 77.6459 34.6417 77.7118 35.8872C77.8318 38.1456 78.6876 39.6609 80.5434 40.9001C85.2395 44.0358 91.4085 39.9019 90.3562 34.3249C90.082 32.8722 89.028 31.1729 87.9285 30.411C86.0733 29.1256 83.6641 28.8065 81.6499 29.5795ZM53.5707 32.9284C55.2448 34.1203 55.3634 36.6193 53.8082 37.9279C52.4951 39.0327 50.9177 39.0327 49.6046 37.9279C47.9701 36.5526 48.2265 33.8736 50.0956 32.8011C51.0895 32.2308 52.6723 32.2887 53.5707 32.9284ZM69.6642 32.8852C70.5723 33.5577 71.0357 34.4278 71.0357 35.4603C71.0357 36.6699 70.5826 37.6054 69.7207 38.1759C67.7847 39.4568 65.2861 38.4842 64.777 36.2515C64.4728 34.9184 65.1035 33.5291 66.376 32.7289C67.1491 32.2429 68.91 32.3264 69.6642 32.8852ZM85.6048 32.7708C88.0883 34.1665 87.6941 37.7338 84.9565 38.6371C82.5078 39.4452 80.1502 36.8215 81.092 34.3363C81.7424 32.6198 83.9645 31.849 85.6048 32.7708ZM38.8202 40.8686C38.8202 44.9576 38.9851 46.0166 39.8662 47.5904C40.9407 49.5095 43.0254 51.0285 45.2252 51.4956C45.8026 51.6182 48.0778 51.7088 50.5787 51.7088H54.9279L54.926 55.451C54.9243 58.9723 54.8982 59.2492 54.482 60.1407C54.2389 60.6617 53.6905 61.403 53.2635 61.788C51.7858 63.1199 52.4189 63.0776 33.9411 63.0776C23.3325 63.0776 17.255 63.1452 17.0297 63.2659C16.836 63.3694 15.1147 65.2653 13.2045 67.479L9.73152 71.5038L9.68016 67.7864C9.62938 64.1099 9.62369 64.0637 9.15752 63.5974C8.83062 63.2705 8.38131 63.0865 7.69266 62.9973C5.61836 62.7286 4.02806 61.46 3.48854 59.6438C3.07675 58.2572 3.04814 42.0203 3.45519 40.6679C3.94941 39.0265 5.17265 37.8106 6.76031 37.3831C7.43759 37.2008 11.3277 37.1413 23.2336 37.1315L38.8202 37.1188V40.8686ZM77.622 66.2514L77.5735 80.794H48.4848H19.3962L19.3465 73.5464L19.2969 66.2988L34.791 66.2976C43.7109 66.2971 50.7532 66.2199 51.3882 66.1159C54.5091 65.6049 57.0555 63.2652 57.8916 60.1407C58.0621 59.5029 58.1457 57.9703 58.1472 55.451L58.1495 51.7088H67.91H77.6705L77.622 66.2514ZM77.63 86.9995C77.5312 90.384 77.203 91.4364 75.8968 92.5543C74.3963 93.8384 75.8587 93.7734 48.4848 93.7734C21.111 93.7734 22.5734 93.8384 21.0729 92.5543C19.7666 91.4364 19.4384 90.384 19.3397 86.9995L19.2554 84.1099H48.4848H77.7143L77.63 86.9995ZM44.2421 87.7574C43.7177 88.2292 43.6019 88.6811 43.8064 89.4593C44.0546 90.405 44.6853 90.5523 48.4848 90.5523C52.2844 90.5523 52.915 90.405 53.1633 89.4593C53.3677 88.6811 53.252 88.2292 52.7276 87.7574C52.2698 87.3455 52.1265 87.3311 48.4848 87.3311C44.8432 87.3311 44.6999 87.3455 44.2421 87.7574Z" fill="#004889"/>
</svg>
