<svg width="65" height="65" viewBox="0 0 65 65" fill="none" xmlns="http://www.w3.org/2000/svg">
    <path fill-rule="evenodd" clip-rule="evenodd" d="M18.2694 0.0314678C13.21 0.0953951 12.192 0.144676 11.9611 0.33661C11.3062 0.880984 11.2758 1.22427 11.2758 8.11286V14.6783H9.09865C7.63526 14.6783 6.62787 14.7549 6.02591 14.9119C3.26473 15.632 0.954992 17.9467 0.232512 20.7172C0.0263728 21.5078 -0.00257475 23.8924 0.000167681 39.8621C0.00351955 59.9641 -0.0441687 58.9219 0.958343 60.8186C1.96268 62.7185 4.22717 64.4392 6.28415 64.8652C6.84894 64.9822 15.1247 65.0193 34.2818 64.9909L61.4776 64.9505L62.2394 64.544C63.1566 64.0547 63.9862 63.2109 64.4646 62.2805C64.804 61.6203 64.8223 61.4003 64.9404 56.5591C65.0079 53.7899 65.0199 46.6496 64.9669 40.6917C64.8575 28.3915 64.9128 28.9204 63.5968 27.5645C62.6395 26.5781 61.5294 26.1048 59.9397 26.0055C59.2352 25.9615 58.659 25.8996 58.659 25.8677C58.659 25.836 58.8232 25.4053 59.0239 24.9106C59.8041 22.9876 59.9539 22.0926 59.9443 19.408C59.9361 17.1138 59.8981 16.7688 59.5175 15.5174C57.9556 10.3831 54.1544 6.67014 49.0605 5.3028C48.4657 5.14321 47.2336 5.00468 45.9753 4.95585L43.8803 4.87469V3.21105C43.8803 1.48242 43.7089 0.763657 43.195 0.33661C42.9592 0.140556 41.5837 0.0967682 33.611 0.0314678C28.4913 -0.0104893 21.5875 -0.0104893 18.2694 0.0314678ZM22.7026 14.602V25.9686H18.6652H14.6277V14.602V3.23546H18.6652H22.7026V14.602ZM40.5285 4.45145V5.66729L39.3893 6.19443C36.0627 7.73356 33.2702 10.6626 31.9069 14.0424C30.4843 17.5692 30.5119 21.8041 31.9791 25.1256C32.1563 25.5267 32.3012 25.8804 32.3012 25.9116C32.3012 25.9429 30.8614 25.9686 29.1017 25.9686H25.9022V14.602V3.23546H33.2153H40.5285V4.45145ZM48.35 8.48955C51.5075 9.34715 54.2242 11.5768 55.6117 14.4494C56.5033 16.2954 56.7422 17.357 56.7446 19.4843C56.7472 21.6709 56.5022 22.7412 55.5748 24.5954L54.9263 25.8923L52.0663 25.9338L49.2064 25.9753L49.7048 25.0946C50.1712 24.2706 50.2032 24.1209 50.2027 22.7646C50.2024 21.5467 50.1465 21.2105 49.8534 20.6598C49.0143 19.0844 47.5841 18.0922 45.9169 17.929C44.4495 17.7853 43.8803 17.2766 43.8803 16.1088C43.8803 15.3629 44.564 14.6783 45.3088 14.6783C46.3772 14.6783 46.9461 15.2216 47.1292 16.4165C47.3079 17.5836 48.4523 18.1975 49.4478 17.6606C50.0452 17.3385 50.2793 16.8634 50.2793 15.9736C50.2793 14.4439 49.1543 12.6805 47.7065 11.9409C47.2765 11.7212 47.0798 11.5213 47.0798 11.304C47.0798 10.8465 46.6307 10.1538 46.2096 9.96156C46.01 9.87047 45.6046 9.79602 45.3088 9.79602C44.61 9.79602 43.8803 10.4835 43.8803 11.142C43.8803 11.5221 43.7747 11.6505 43.2328 11.9303C41.4847 12.8326 40.3363 14.9563 40.6014 16.7971C40.9476 19.1996 42.72 20.8405 45.3101 21.1566C46.6077 21.3148 47.2787 22.1033 47.014 23.1591C46.7226 24.3216 45.192 24.7117 44.3257 23.8443C44.0554 23.5737 43.8803 23.2378 43.8803 22.9901C43.8803 22.0812 43.0044 21.0863 42.2044 21.0863C41.7338 21.0863 40.9893 21.6093 40.7544 22.105C40.533 22.5723 40.5236 22.7696 40.683 23.6152C40.7853 24.1585 41.0602 24.8942 41.3056 25.2817L41.7449 25.9753L38.8908 25.9338L36.0367 25.8923L35.5354 25.0531C35.2596 24.5916 34.8501 23.6647 34.6252 22.9934C34.255 21.888 34.216 21.5568 34.2129 19.4843C34.2098 17.3668 34.2413 17.1045 34.6353 15.9752C35.6675 13.0168 37.7073 10.6753 40.4523 9.29757C41.2205 8.91202 42.9595 8.35117 43.8042 8.21645C44.6628 8.0796 47.4592 8.24757 48.35 8.48955ZM11.2758 22.9248C11.2758 27.1334 11.3141 28.0411 11.507 28.4147C12.0097 29.3884 10.2698 29.3251 36.5524 29.3251C53.4272 29.3251 60.5798 29.3739 60.8359 29.4907C61.6597 29.8666 61.7062 30.1498 61.7062 34.7969V39.0775L55.1167 39.1217C48.7108 39.1647 48.5019 39.1756 47.619 39.5089C45.277 40.3937 43.4248 42.2882 42.6587 44.5822C41.1681 49.0472 43.753 53.8236 48.3187 55.0405C48.9644 55.2126 50.4626 55.259 55.4309 55.2604L61.725 55.2622L61.6775 58.0817L61.63 60.9011L61.2075 61.3239L60.785 61.7465H33.7831H6.78129L5.81763 61.2233C4.77673 60.658 4.16181 60.0157 3.62094 58.9286L3.27707 58.2374V39.8525V21.4677L3.65431 20.7049C4.3064 19.3865 5.56807 18.355 6.93365 18.0242C7.18504 17.9633 8.2648 17.9065 9.33328 17.8979L11.2758 17.8823V22.9248ZM61.7062 47.1824V52.0709L55.4214 52.0265C49.233 51.9825 49.1249 51.9766 48.3749 51.6312C46.3193 50.6845 45.126 48.4215 45.5628 46.2987C45.6622 45.8161 45.8442 45.2247 45.9675 44.9844C46.288 44.359 47.3647 43.2276 47.9099 42.9429C49.0512 42.3469 49.4461 42.3143 55.6499 42.3039L61.7062 42.2937V47.1824Z" fill="#004889"/>
</svg>
