<svg width="24" height="24" viewBox="0 0 24 24" fill="none" xmlns="http://www.w3.org/2000/svg">
    <path fill-rule="evenodd" clip-rule="evenodd" d="M7.94575 0.0648178C3.71676 0.585772 0.473509 3.90435 0.043921 8.15021C-0.192498 10.4867 0.533458 12.8885 2.03026 14.722C4.78426 18.0954 9.57465 19.0218 13.3814 16.9171L13.8916 16.635L17.5093 20.2464C20.9488 23.6799 21.1395 23.8618 21.3798 23.9392C21.6962 24.0412 22.0848 24.0132 22.3735 23.8676C22.6763 23.715 23.7491 22.6308 23.8718 22.3534C24.0146 22.0306 24.0374 21.7294 23.9437 21.402L23.8642 21.1245L20.2448 17.5017L16.6254 13.8788L16.7082 13.7498C16.8756 13.4886 17.3211 12.5774 17.4708 12.1899C18.4211 9.73038 18.1667 6.77569 16.8057 4.46357C16.2859 3.58042 15.4422 2.60051 14.6734 1.98693C12.7817 0.477013 10.3167 -0.227222 7.94575 0.0648178ZM10.6664 0.932684C14.5334 1.76528 17.2508 5.0832 17.2563 8.97892C17.2576 9.96867 17.1386 10.7202 16.8359 11.6319C15.9548 14.2861 13.7534 16.3272 11.0267 17.018C9.75319 17.3407 8.25047 17.3319 6.91818 16.9941C5.94754 16.7479 4.94389 16.2627 4.0758 15.6201C3.58908 15.2597 2.69735 14.3573 2.35487 13.8786C1.54959 12.7529 1.06141 11.5409 0.85891 10.1644C0.742483 9.37306 0.784747 8.09914 0.953243 7.32155C1.36576 5.41773 2.37757 3.78349 3.91162 2.54324C4.94295 1.70943 6.36001 1.09359 7.7782 0.862805C8.40227 0.761268 10.0561 0.801273 10.6664 0.932684ZM8.23541 1.92202C6.57133 2.11538 5.16084 2.79795 3.98119 3.98065C2.80951 5.15538 2.15593 6.47535 1.94114 8.10073C1.54687 11.0845 3.07454 13.9957 5.75766 15.3736C8.01283 16.5318 10.7715 16.3968 12.8824 15.0251C13.4296 14.6695 14.0047 14.1773 14.3814 13.7419C16.6106 11.1659 16.7553 7.49405 14.7363 4.73591C14.4022 4.27954 13.6733 3.564 13.1953 3.22323C11.7593 2.19952 9.94457 1.7234 8.23541 1.92202ZM10.0836 2.74397C12.3695 3.12761 14.3171 4.78947 15.0531 6.98449C15.3583 7.89475 15.4575 9.03398 15.3124 9.96258C15.1055 11.2862 14.5378 12.4422 13.6244 13.3994C12.7179 14.3495 11.6606 14.9476 10.3615 15.2454C9.7917 15.376 8.69488 15.4101 8.08648 15.3161C5.34182 14.892 3.20551 12.7997 2.74369 10.0833C2.5979 9.22575 2.6602 8.10781 2.90173 7.24722C3.54503 4.95517 5.57462 3.14055 7.93905 2.74346C8.47643 2.65322 9.54426 2.6535 10.0836 2.74397ZM8.36793 3.79385C7.18405 3.96283 6.21516 4.43182 5.3306 5.26409C5.15109 5.43297 5.14851 5.71657 5.32521 5.85549C5.53133 6.01762 5.67777 5.98254 6.00778 5.69195C6.62687 5.14684 7.37028 4.78211 8.20825 4.61234C8.77299 4.49795 9.67846 4.53917 10.2332 4.70459C10.7143 4.84796 10.7741 4.85213 10.917 4.75205C11.1947 4.55756 11.1218 4.19414 10.7774 4.05611C10.2166 3.83133 9.01883 3.70095 8.36793 3.79385ZM11.8701 4.90222C11.7178 5.00887 11.6584 5.18976 11.7238 5.34771C11.8062 5.54661 12.3133 5.95271 12.4792 5.95271C12.6707 5.95271 12.8477 5.76708 12.8477 5.56631C12.8477 5.43959 12.8013 5.36506 12.6014 5.1709C12.2333 4.8133 12.0783 4.75636 11.8701 4.90222ZM19.7085 18.0417L23.2145 21.5481V21.7799V22.0116L22.6144 22.6116L22.0143 23.2116H21.7825H21.5505L18.0317 19.6935L14.5129 16.1754L14.6771 16.0497C14.9386 15.8495 15.7936 15.002 15.9802 14.758C16.0739 14.6355 16.1622 14.5352 16.1766 14.5352C16.1908 14.5352 17.7802 16.1131 19.7085 18.0417Z" fill="#ACACAC"/>
</svg>
