<svg width="44" height="64" viewBox="0 0 44 64" fill="none" xmlns="http://www.w3.org/2000/svg">
    <path fill-rule="evenodd" clip-rule="evenodd" d="M19.8798 0.163717C16.0285 0.850408 12.8544 3.25933 11.1832 6.76356C10.3587 8.49229 10.1592 9.52995 10.0837 12.4823L10.0182 15.0455L9.56864 15.9375C9.14783 16.7726 9.12226 16.8924 9.16717 17.813C9.22342 18.9682 9.52041 19.6648 10.2937 20.4555C10.8934 21.0688 11.3099 21.3007 12.2246 21.5307L12.8889 21.6977L13.1139 22.5968C13.5447 24.3196 14.6197 26.0651 15.8967 27.1155L16.5278 27.6347V28.85V30.065L10.7062 32.281C7.5043 33.4999 4.57888 34.6781 4.20515 34.8991C2.57626 35.8628 1.13607 37.5588 0.556711 39.1955C0.0188359 40.7153 -0.0296457 41.8875 0.0110736 52.3783L0.0492482 62.2035L0.430991 62.8091C0.681669 63.2067 1.00526 63.5145 1.37351 63.7055C1.93302 63.996 1.946 63.9966 6.91667 63.9966C11.7548 63.9966 11.9069 63.9893 12.1773 63.7417C12.5517 63.399 12.5517 62.7188 12.1773 62.3761C11.9385 62.1574 11.7306 62.1211 10.714 62.1211H9.52919V52.7379V43.3545L9.2168 43.0477C8.79179 42.6299 8.22898 42.6394 7.88426 43.0702C7.62277 43.3968 7.62048 43.4797 7.62048 52.7604V62.1211L4.98009 62.1192C3.52794 62.1181 2.25381 62.0638 2.14883 61.9987C1.98163 61.8948 1.95796 60.5869 1.95796 51.4664C1.95796 41.7348 1.97323 41.0036 2.1907 40.3025C2.65477 38.8062 3.61473 37.5421 4.92474 36.7021C5.8385 36.1162 12.5059 33.5006 12.6793 33.6599C12.7314 33.7079 13.4611 35.1096 14.301 36.7747C15.5661 39.283 15.9021 39.8507 16.2603 40.0837C16.7976 40.4333 17.4743 40.4451 18.026 40.1145C18.2552 39.9772 18.4672 39.8649 18.4971 39.8649C18.527 39.8649 18.7191 40.1043 18.924 40.3969L19.2966 40.929L17.8387 49.3682C16.5982 56.5484 16.4011 57.8727 16.5171 58.245C16.6028 58.5197 17.2475 59.3226 18.2496 60.4019L19.8457 62.1211H17.8222C15.9677 62.1211 15.7707 62.1427 15.4634 62.3803C14.9987 62.7394 14.9997 63.3791 15.4655 63.7392L15.803 64L29.0585 63.9671L42.3142 63.9341L42.8431 63.5901C43.134 63.401 43.502 63.0071 43.6608 62.7149C43.9433 62.1954 43.9506 62.0841 43.9903 57.6855C44.0127 55.2116 43.9951 53.0001 43.9513 52.771C43.7987 51.9719 43.028 51.6159 42.4227 52.0651C42.178 52.2466 42.1658 52.4385 42.1046 57.0671C42.0505 61.1627 42.0124 61.898 41.8501 61.9988C41.7451 62.064 40.4711 62.1181 39.0188 62.1192L36.3784 62.1211V52.7604C36.3784 43.4797 36.3761 43.3968 36.1147 43.0702C35.7699 42.6394 35.2071 42.6299 34.7821 43.0477L34.4697 43.3545V52.7379V62.1211H29.3077H24.1455L25.7452 60.4019C26.7603 59.3109 27.394 58.5227 27.4794 58.245C27.5934 57.8745 27.3903 56.5123 26.1569 49.3699L24.6998 40.9326L25.0736 40.3987C25.2791 40.1051 25.4719 39.8649 25.5018 39.8649C25.5317 39.8649 25.7437 39.9772 25.9729 40.1145C26.5024 40.4317 27.1655 40.4329 27.6918 40.1176C28.032 39.9137 28.3803 39.327 29.7029 36.7293C31.0566 34.0708 31.3394 33.597 31.5421 33.6492C31.6738 33.6831 33.2311 34.2612 35.0026 34.9342C39.2372 36.5425 40.1831 37.151 41.2103 38.9271C41.9547 40.2145 42.0067 40.5747 42.0726 44.8996L42.1331 48.8713L42.4541 49.1195C42.8763 49.4457 43.1587 49.4324 43.5926 49.066L43.9497 48.7644L43.9889 45.6588C44.0335 42.1258 43.8934 40.4706 43.4422 39.1955C42.8733 37.5883 41.5937 36.0477 39.9718 35.0177C39.4965 34.7158 37.0752 33.7243 33.3469 32.3048L27.4711 30.0675L27.4719 28.8083L27.4728 27.549L28.4102 26.5835C29.6736 25.2823 30.4012 23.8952 30.8303 21.9699C30.8904 21.7005 30.9961 21.6277 31.4257 21.5602C32.5314 21.3865 33.6953 20.5429 34.2003 19.5492C34.3624 19.2303 34.5571 18.6139 34.6329 18.1795C34.7555 17.4754 34.7394 17.2967 34.4835 16.5303C34.3257 16.0575 34.1004 15.5665 33.9831 15.4392C33.8026 15.2432 33.758 14.7829 33.6925 12.4384C33.6298 10.1914 33.565 9.48744 33.3494 8.70647C32.3047 4.92154 29.4311 1.86744 25.7517 0.631722C23.8921 0.00717339 21.726 -0.165375 19.8798 0.163717ZM24.5216 2.22342C27.4785 3.05452 29.8243 5.07946 31.0132 7.8271C31.5848 9.14785 31.7975 10.3423 31.7975 12.2293V13.8624L31.4476 13.7803C30.9462 13.6625 30.9068 13.6267 30.9068 13.2909C30.9068 12.9703 30.1251 12.0231 28.4719 10.3406C27.6889 9.5437 27.4478 9.37253 27.0065 9.30014C26.4309 9.20574 26.4559 9.19623 24.2899 10.331C21.4854 11.8003 18.7151 12.4818 15.5425 12.4828C13.859 12.4833 13.3158 12.6738 13.054 13.3555C12.9215 13.7004 12.653 13.8523 12.1696 13.8559C11.9716 13.8574 11.9473 13.7154 11.9508 12.576C11.953 11.8711 12.0071 10.8995 12.071 10.4167C12.6368 6.13976 15.937 2.74931 20.2831 1.97972C21.2893 1.80167 23.4662 1.92671 24.5216 2.22342ZM27.8847 12.4506L28.9981 13.6476L28.9965 17.5975C28.9954 20.6619 28.9534 21.7012 28.8091 22.234C28.1599 24.6312 26.2177 26.5382 23.7752 27.177C22.8575 27.4169 21.0199 27.4102 20.0454 27.1634C17.8274 26.6015 16.0072 24.9646 15.1456 22.7575C14.8265 21.9397 14.8187 21.844 14.7732 18.1401L14.7267 14.3578L15.9136 14.3555C19.0974 14.3494 22.8833 13.3488 25.5624 11.8053C26.0873 11.5029 26.574 11.2551 26.644 11.2546C26.714 11.2539 27.2723 11.7922 27.8847 12.4506ZM12.8376 17.6712C12.8376 19.9521 12.8342 19.9599 12.0642 19.45C10.801 18.6136 10.6831 16.9379 11.8306 16.1327C12.0694 15.965 12.6057 15.6822 12.8058 15.6183C12.8233 15.6128 12.8376 16.5365 12.8376 17.6712ZM31.9379 15.9924C32.3558 16.2848 32.8165 17.1735 32.8127 17.6795C32.8061 18.5456 32.081 19.4718 31.249 19.677L30.9068 19.7614V17.6712V15.581L31.249 15.6654C31.4372 15.7118 31.7471 15.859 31.9379 15.9924ZM21.5639 29.2057C22.832 29.2552 23.2768 29.2214 24.1088 29.0124C24.6634 28.873 25.2173 28.7199 25.3397 28.672C25.5395 28.594 25.5624 28.6784 25.5624 29.4931V30.4014L23.8322 32.5074C22.8806 33.6657 22.0554 34.6134 21.9984 34.6134C21.9414 34.6134 21.1171 33.6709 20.1667 32.5191L18.4384 30.4248L18.4375 29.5314L18.4365 28.638L19.2318 28.8918C19.7789 29.0665 20.5067 29.1644 21.5639 29.2057ZM18.9169 33.9888C19.8464 35.1125 20.5623 36.0702 20.5079 36.1172C20.2115 36.3729 17.2604 38.3752 17.2293 38.3417C17.0378 38.1349 14.4968 32.9412 14.5576 32.8807C14.6935 32.7457 16.9648 31.8836 17.1 31.9157C17.1699 31.9322 17.9875 32.8652 18.9169 33.9888ZM28.1073 32.3161C28.7722 32.5659 29.3631 32.8118 29.4205 32.8628C29.498 32.9316 26.9974 38.0972 26.7668 38.3445C26.7449 38.3679 25.9794 37.8636 25.0656 37.2239C23.5842 36.1868 23.4211 36.0367 23.5607 35.8394C23.8901 35.374 26.7744 31.8769 26.8349 31.8697C26.8699 31.8654 27.4425 32.0662 28.1073 32.3161ZM23.0174 38.092C23.4723 38.4022 23.8631 38.6697 23.8859 38.6865C23.9087 38.7031 23.7721 38.9469 23.5827 39.2282L23.2381 39.7399H21.9995H20.7608L20.4115 39.2212C20.1343 38.8095 20.098 38.6824 20.2355 38.6043C20.3309 38.5503 20.7524 38.2565 21.1723 37.9514C21.5923 37.6463 21.9931 37.4262 22.0631 37.4624C22.1331 37.4984 22.5625 37.7818 23.0174 38.092ZM22.9407 41.9592C22.9796 42.1483 23.5884 45.679 24.2934 49.8052C24.9984 53.9313 25.5993 57.3917 25.6286 57.4948C25.6791 57.6725 22.2085 61.5584 21.9995 61.5584C21.948 61.5584 21.0996 60.6863 20.114 59.6204C18.784 58.1819 18.3368 57.6179 18.3791 57.4323C18.4106 57.2948 19.0098 53.8344 19.7108 49.7427C20.4119 45.6509 21.0177 42.1483 21.0572 41.9592C21.127 41.6245 21.152 41.6154 21.9995 41.6154C22.8472 41.6154 22.8719 41.6244 22.9407 41.9592Z" fill="#004889"/>
</svg>
